<svg xmlns="http://www.w3.org/2000/svg" viewBox="0 0 200 192" role="img" aria-label="ADHD 에드헤드">
  <!-- Heart outline -->
  <path d="M100,170 C100,170 16,122 16,68 C16,36 38,14 66,14 C80,14 92,22 100,34 C108,22 120,14 134,14 C162,14 184,36 184,68 C184,122 100,170 100,170Z"
        fill="white" stroke="black" stroke-width="9" stroke-linejoin="round"/>
  <!-- Letter A -->
  <text x="67" y="102"
        font-family="'Arial Black', 'Helvetica Neue', Arial, sans-serif"
        font-weight="900"
        font-size="56"
        fill="black"
        text-anchor="middle">A</text>
  <!-- Flower (6 petals + center) -->
  <g transform="translate(138,70)">
    <ellipse rx="8" ry="15" fill="black"/>
    <ellipse rx="8" ry="15" fill="black" transform="rotate(60)"/>
    <ellipse rx="8" ry="15" fill="black" transform="rotate(120)"/>
    <ellipse rx="8" ry="15" fill="black" transform="rotate(180)"/>
    <ellipse rx="8" ry="15" fill="black" transform="rotate(240)"/>
    <ellipse rx="8" ry="15" fill="black" transform="rotate(300)"/>
    <circle r="6.5" fill="white"/>
  </g>
  <!-- Smile arc -->
  <path d="M 68,122 Q 100,146 132,122"
        fill="none" stroke="black" stroke-width="9" stroke-linecap="round"/>
</svg>
